<svg width="100" height="100" viewBox="0 0 100 100" fill="none" xmlns="http://www.w3.org/2000/svg">
<circle cx="50" cy="50" r="50" fill="white"/>
<path d="M47.405 46.5647L29.9333 46.5647C29.6137 46.5647 29.3546 46.3055 29.3546 45.9857L29.3546 28.5146C29.3546 28.1948 29.6137 27.9355 29.9333 27.9355L47.405 27.9355C47.7246 27.9355 47.9837 28.1948 47.9837 28.5146L47.9837 45.9856C47.9837 46.3055 47.7246 46.5647 47.405 46.5647ZM30.5122 45.4067L46.8262 45.4067L46.8262 29.0936L30.5122 29.0936L30.5122 45.4067Z" fill="black" stroke="#145DA0" stroke-width="3"/>
<path d="M71.0019 72.6457L53.5304 72.6457C53.2107 72.6457 52.9515 72.3864 52.9515 72.0666L52.9515 54.5955C52.9515 54.2757 53.2107 54.0165 53.5304 54.0165L71.0019 54.0165C71.3216 54.0165 71.5807 54.2757 71.5807 54.5955L71.5807 72.0665C71.5807 72.3864 71.3216 72.6457 71.0019 72.6457ZM54.1092 71.4876L70.4232 71.4876L70.4232 55.1745L54.1092 55.1745L54.1092 71.4876Z" fill="#0C2D48"/>
<path d="M83.0354 49.0486L53.9161 49.0486C53.3833 49.0486 52.9514 48.6166 52.9514 48.0836L52.9514 18.9651C52.9514 18.432 53.3833 18 53.9161 18L83.0354 18C83.5682 18 84 18.432 84 18.9651L84 48.0834C84 48.6166 83.5682 49.0486 83.0354 49.0486ZM54.8807 47.1185L82.0708 47.1185L82.0708 19.9301L54.8807 19.9301L54.8807 47.1185Z" fill="black" stroke="#2E8BC0" stroke-width="1.5"/>
<path d="M47.084 82.6495L17.9646 82.6495C17.4318 82.6495 17 82.2174 17 81.6844L17 52.5659C17 52.0329 17.4318 51.6008 17.9646 51.6008L47.084 51.6008C47.6168 51.6008 48.0486 52.0329 48.0486 52.5659L48.0486 81.6843C48.0486 82.2174 47.6168 82.6495 47.084 82.6495ZM18.9294 80.7193L46.1194 80.7193L46.1194 53.5309L18.9294 53.5309L18.9294 80.7193Z" fill="#121254" stroke="#121254" stroke-width="3"/>
</svg>
