<svg width="154" height="56" viewBox="0 0 154 56" fill="none" xmlns="http://www.w3.org/2000/svg">
<path d="M26.4817 24L12.4138 24C12.1564 24 11.9478 23.7913 11.9478 23.5338L11.9478 9.46623C11.9478 9.20872 12.1564 9 12.4138 9L26.4817 9C26.7391 9 26.9478 9.20872 26.9478 9.46623L26.9478 23.5337C26.9478 23.7913 26.7391 24 26.4817 24ZM12.8799 23.0675L26.0157 23.0675L26.0157 9.93246L12.8799 9.93246L12.8799 23.0675Z" fill="black" stroke="#145DA0" stroke-width="3"/>
<path d="M45.4817 45L31.4138 45C31.1564 45 30.9478 44.7913 30.9478 44.5338L30.9478 30.4662C30.9478 30.2087 31.1564 30 31.4138 30L45.4817 30C45.7391 30 45.9478 30.2087 45.9478 30.4662L45.9478 44.5337C45.9478 44.7913 45.7391 45 45.4817 45ZM31.8799 44.0675L45.0157 44.0675L45.0157 30.9325L31.8799 30.9325L31.8799 44.0675Z" fill="#0C2D48"/>
<path d="M55.1709 26L31.7244 26C31.2955 26 30.9476 25.6521 30.9476 25.2229L30.9476 1.77705C30.9476 1.34787 31.2955 1 31.7244 1L55.1709 1C55.5999 1 55.9476 1.34787 55.9476 1.77705L55.9476 25.2228C55.9476 25.6521 55.5999 26 55.1709 26ZM32.5011 24.4459L54.3942 24.4459L54.3942 2.5541L32.5011 2.5541L32.5011 24.4459Z" fill="black" stroke="#2E8BC0" stroke-width="1.5"/>
<path d="M26.2233 53.055L2.77669 53.055C2.3477 53.055 2 52.7071 2 52.2779L2 28.832C2 28.4029 2.3477 28.055 2.77669 28.055L26.2233 28.055C26.6523 28.055 27 28.4029 27 28.832L27 52.2778C27 52.7071 26.6523 53.055 26.2233 53.055ZM3.5535 51.5009L25.4466 51.5009L25.4466 29.6091L3.5535 29.6091L3.5535 51.5009Z" fill="#121254" stroke="#121254" stroke-width="3"/>
<path d="M72.5475 37H66.7805L75.5678 11.5455H82.5032L91.278 37H85.511L79.1349 17.3622H78.936L72.5475 37ZM72.1871 26.9947H85.8093V31.1957H72.1871V26.9947ZM111.466 37H102.442V11.5455H111.54C114.101 11.5455 116.305 12.055 118.153 13.0742C120 14.0851 121.421 15.5393 122.416 17.4368C123.418 19.3343 123.92 21.6046 123.92 24.2479C123.92 26.8994 123.418 29.178 122.416 31.0838C121.421 32.9896 119.992 34.4521 118.128 35.4712C116.272 36.4904 114.051 37 111.466 37ZM107.824 32.3888H111.242C112.833 32.3888 114.171 32.1071 115.257 31.5437C116.35 30.9719 117.171 30.0895 117.718 28.8963C118.273 27.6948 118.55 26.1454 118.55 24.2479C118.55 22.367 118.273 20.8299 117.718 19.6367C117.171 18.4435 116.355 17.5652 115.269 17.0018C114.184 16.4383 112.845 16.1566 111.254 16.1566H107.824V32.3888ZM136.007 37V11.5455H141.389V32.5629H152.301V37H136.007Z" fill="#121254"/>
<path d="M72.5898 53L70.2034 44.2727H71.2773L73.1012 51.3807H73.1864L75.0443 44.2727H76.2375L78.0955 51.3807H78.1807L80.0046 44.2727H81.0784L78.6921 53H77.6012L75.675 46.0455H75.6068L73.6807 53H72.5898ZM84.3938 53.1364C83.7631 53.1364 83.2191 52.9972 82.7617 52.7188C82.3071 52.4375 81.9563 52.0455 81.7091 51.5426C81.4648 51.0369 81.3426 50.4489 81.3426 49.7784C81.3426 49.108 81.4648 48.517 81.7091 48.0057C81.9563 47.4915 82.3 47.0909 82.7404 46.804C83.1835 46.5142 83.7006 46.3693 84.2915 46.3693C84.6324 46.3693 84.9691 46.4261 85.3014 46.5398C85.6338 46.6534 85.9364 46.8381 86.2091 47.0938C86.4818 47.3466 86.6992 47.6818 86.8611 48.0994C87.023 48.517 87.104 49.0312 87.104 49.642V50.0682H82.0585V49.1989H86.0813C86.0813 48.8295 86.0074 48.5 85.8597 48.2102C85.7148 47.9205 85.5074 47.6918 85.2375 47.5241C84.9705 47.3565 84.6551 47.2727 84.2915 47.2727C83.8909 47.2727 83.5443 47.3722 83.2517 47.571C82.962 47.767 82.7389 48.0227 82.5827 48.3381C82.4264 48.6534 82.3483 48.9915 82.3483 49.3523V49.9318C82.3483 50.4261 82.4335 50.8452 82.604 51.1889C82.7773 51.5298 83.0174 51.7898 83.3242 51.9688C83.631 52.1449 83.9875 52.233 84.3938 52.233C84.658 52.233 84.8966 52.196 85.1097 52.1222C85.3256 52.0455 85.5117 51.9318 85.6679 51.7812C85.8242 51.6278 85.9449 51.4375 86.0301 51.2102L87.0017 51.483C86.8995 51.8125 86.7276 52.1023 86.4861 52.3523C86.2446 52.5994 85.9463 52.7926 85.5912 52.9318C85.2361 53.0682 84.837 53.1364 84.3938 53.1364ZM88.7702 53V44.2727H89.7759V47.4943H89.8611C89.935 47.3807 90.0372 47.2358 90.1679 47.0597C90.3014 46.8807 90.4918 46.7216 90.7389 46.5824C90.9889 46.4403 91.327 46.3693 91.7532 46.3693C92.3043 46.3693 92.7901 46.5071 93.2105 46.7827C93.631 47.0582 93.9591 47.4489 94.1949 47.9545C94.4307 48.4602 94.5486 49.0568 94.5486 49.7443C94.5486 50.4375 94.4307 51.0384 94.1949 51.5469C93.9591 52.0526 93.6324 52.4446 93.2148 52.723C92.7972 52.9986 92.3157 53.1364 91.7702 53.1364C91.3497 53.1364 91.0131 53.0668 90.7603 52.9276C90.5074 52.7855 90.3128 52.625 90.1764 52.446C90.0401 52.2642 89.935 52.1136 89.8611 51.9943H89.7418V53H88.7702ZM89.7588 49.7273C89.7588 50.2216 89.8313 50.6577 89.9762 51.0355C90.121 51.4105 90.3327 51.7045 90.6111 51.9176C90.8895 52.1278 91.2304 52.233 91.6338 52.233C92.0543 52.233 92.4051 52.1222 92.6864 51.9006C92.9705 51.6761 93.1835 51.375 93.3256 50.9972C93.4705 50.6165 93.5429 50.1932 93.5429 49.7273C93.5429 49.267 93.4719 48.8523 93.3299 48.483C93.1907 48.1108 92.979 47.8168 92.6949 47.6009C92.4137 47.3821 92.06 47.2727 91.6338 47.2727C91.2247 47.2727 90.881 47.3764 90.6026 47.5838C90.3242 47.7884 90.1139 48.0753 89.9719 48.4446C89.8299 48.8111 89.7588 49.2386 89.7588 49.7273ZM104.098 47.9205L103.195 48.1761C103.138 48.0256 103.054 47.8793 102.943 47.7372C102.836 47.5923 102.688 47.473 102.5 47.3793C102.313 47.2855 102.073 47.2386 101.78 47.2386C101.38 47.2386 101.046 47.331 100.779 47.5156C100.515 47.6974 100.382 47.929 100.382 48.2102C100.382 48.4602 100.473 48.6577 100.655 48.8026C100.837 48.9474 101.121 49.0682 101.507 49.1648L102.479 49.4034C103.064 49.5455 103.5 49.7628 103.787 50.0554C104.074 50.3452 104.218 50.7187 104.218 51.1761C104.218 51.5511 104.11 51.8864 103.894 52.1818C103.681 52.4773 103.382 52.7102 102.999 52.8807C102.615 53.0511 102.169 53.1364 101.661 53.1364C100.993 53.1364 100.441 52.9915 100.003 52.7017C99.5657 52.4119 99.2887 51.9886 99.1722 51.4318L100.127 51.1932C100.218 51.5455 100.39 51.8097 100.642 51.9858C100.898 52.1619 101.232 52.25 101.644 52.25C102.113 52.25 102.485 52.1506 102.76 51.9517C103.039 51.75 103.178 51.5085 103.178 51.2273C103.178 51 103.098 50.8097 102.939 50.6562C102.78 50.5 102.536 50.3835 102.206 50.3068L101.115 50.0511C100.516 49.9091 100.076 49.6889 99.7943 49.3906C99.5159 49.0895 99.3767 48.7131 99.3767 48.2614C99.3767 47.892 99.4804 47.5653 99.6878 47.2812C99.898 46.9972 100.184 46.7741 100.544 46.6122C100.908 46.4503 101.32 46.3693 101.78 46.3693C102.428 46.3693 102.936 46.5114 103.306 46.7955C103.678 47.0795 103.942 47.4545 104.098 47.9205ZM108.391 53.1364C107.8 53.1364 107.281 52.9957 106.835 52.7145C106.392 52.4332 106.045 52.0398 105.795 51.5341C105.548 51.0284 105.425 50.4375 105.425 49.7614C105.425 49.0795 105.548 48.4844 105.795 47.9759C106.045 47.4673 106.392 47.0724 106.835 46.7912C107.281 46.5099 107.8 46.3693 108.391 46.3693C108.981 46.3693 109.499 46.5099 109.942 46.7912C110.388 47.0724 110.734 47.4673 110.981 47.9759C111.231 48.4844 111.356 49.0795 111.356 49.7614C111.356 50.4375 111.231 51.0284 110.981 51.5341C110.734 52.0398 110.388 52.4332 109.942 52.7145C109.499 52.9957 108.981 53.1364 108.391 53.1364ZM108.391 52.233C108.839 52.233 109.209 52.1179 109.499 51.8878C109.788 51.6577 110.003 51.3551 110.142 50.9801C110.281 50.6051 110.351 50.1989 110.351 49.7614C110.351 49.3239 110.281 48.9162 110.142 48.5384C110.003 48.1605 109.788 47.8551 109.499 47.6222C109.209 47.3892 108.839 47.2727 108.391 47.2727C107.942 47.2727 107.572 47.3892 107.283 47.6222C106.993 47.8551 106.778 48.1605 106.639 48.5384C106.5 48.9162 106.43 49.3239 106.43 49.7614C106.43 50.1989 106.5 50.6051 106.639 50.9801C106.778 51.3551 106.993 51.6577 107.283 51.8878C107.572 52.1179 107.942 52.233 108.391 52.233ZM113.897 44.2727V53H112.892V44.2727H113.897ZM119.864 50.3239V46.4545H120.87V53H119.864V51.892H119.796C119.643 52.2244 119.404 52.5071 119.08 52.7401C118.756 52.9702 118.347 53.0852 117.853 53.0852C117.444 53.0852 117.08 52.9957 116.762 52.8168C116.444 52.6349 116.194 52.3622 116.012 51.9986C115.83 51.6321 115.739 51.1705 115.739 50.6136V46.4545H116.745V50.5455C116.745 51.0227 116.879 51.4034 117.146 51.6875C117.415 51.9716 117.759 52.1136 118.177 52.1136C118.427 52.1136 118.681 52.0497 118.94 51.9219C119.201 51.794 119.42 51.598 119.596 51.3338C119.775 51.0696 119.864 50.733 119.864 50.3239ZM125.559 46.4545V47.3068H122.167V46.4545H125.559ZM123.155 44.8864H124.161V51.125C124.161 51.4091 124.202 51.6222 124.284 51.7642C124.37 51.9034 124.478 51.9972 124.608 52.0455C124.742 52.0909 124.882 52.1136 125.03 52.1136C125.141 52.1136 125.232 52.108 125.303 52.0966C125.374 52.0824 125.431 52.071 125.473 52.0625L125.678 52.9659C125.61 52.9915 125.515 53.017 125.392 53.0426C125.27 53.071 125.115 53.0852 124.928 53.0852C124.644 53.0852 124.365 53.0241 124.093 52.902C123.823 52.7798 123.598 52.5938 123.419 52.3438C123.243 52.0938 123.155 51.7784 123.155 51.3977V44.8864ZM127.071 53V46.4545H128.077V53H127.071ZM127.583 45.3636C127.387 45.3636 127.218 45.2969 127.076 45.1634C126.936 45.0298 126.867 44.8693 126.867 44.6818C126.867 44.4943 126.936 44.3338 127.076 44.2003C127.218 44.0668 127.387 44 127.583 44C127.779 44 127.946 44.0668 128.086 44.2003C128.228 44.3338 128.299 44.4943 128.299 44.6818C128.299 44.8693 128.228 45.0298 128.086 45.1634C127.946 45.2969 127.779 45.3636 127.583 45.3636ZM132.578 53.1364C131.987 53.1364 131.469 52.9957 131.023 52.7145C130.58 52.4332 130.233 52.0398 129.983 51.5341C129.736 51.0284 129.612 50.4375 129.612 49.7614C129.612 49.0795 129.736 48.4844 129.983 47.9759C130.233 47.4673 130.58 47.0724 131.023 46.7912C131.469 46.5099 131.987 46.3693 132.578 46.3693C133.169 46.3693 133.686 46.5099 134.129 46.7912C134.575 47.0724 134.922 47.4673 135.169 47.9759C135.419 48.4844 135.544 49.0795 135.544 49.7614C135.544 50.4375 135.419 51.0284 135.169 51.5341C134.922 52.0398 134.575 52.4332 134.129 52.7145C133.686 52.9957 133.169 53.1364 132.578 53.1364ZM132.578 52.233C133.027 52.233 133.396 52.1179 133.686 51.8878C133.976 51.6577 134.19 51.3551 134.33 50.9801C134.469 50.6051 134.538 50.1989 134.538 49.7614C134.538 49.3239 134.469 48.9162 134.33 48.5384C134.19 48.1605 133.976 47.8551 133.686 47.6222C133.396 47.3892 133.027 47.2727 132.578 47.2727C132.129 47.2727 131.76 47.3892 131.47 47.6222C131.18 47.8551 130.966 48.1605 130.827 48.5384C130.687 48.9162 130.618 49.3239 130.618 49.7614C130.618 50.1989 130.687 50.6051 130.827 50.9801C130.966 51.3551 131.18 51.6577 131.47 51.8878C131.76 52.1179 132.129 52.233 132.578 52.233ZM138.085 49.0625V53H137.079V46.4545H138.051V47.4773H138.136C138.289 47.1449 138.522 46.8778 138.835 46.6761C139.147 46.4716 139.551 46.3693 140.045 46.3693C140.488 46.3693 140.876 46.4602 141.208 46.642C141.541 46.821 141.799 47.0938 141.984 47.4602C142.169 47.8239 142.261 48.2841 142.261 48.8409V53H141.255V48.9091C141.255 48.3949 141.122 47.9943 140.855 47.7074C140.588 47.4176 140.221 47.2727 139.755 47.2727C139.434 47.2727 139.147 47.3423 138.894 47.4815C138.644 47.6207 138.447 47.8239 138.302 48.0909C138.157 48.358 138.085 48.6818 138.085 49.0625ZM148.735 47.9205L147.832 48.1761C147.775 48.0256 147.691 47.8793 147.58 47.7372C147.472 47.5923 147.325 47.473 147.137 47.3793C146.95 47.2855 146.709 47.2386 146.417 47.2386C146.016 47.2386 145.682 47.331 145.415 47.5156C145.151 47.6974 145.019 47.929 145.019 48.2102C145.019 48.4602 145.11 48.6577 145.292 48.8026C145.474 48.9474 145.758 49.0682 146.144 49.1648L147.116 49.4034C147.701 49.5455 148.137 49.7628 148.424 50.0554C148.711 50.3452 148.854 50.7187 148.854 51.1761C148.854 51.5511 148.746 51.8864 148.53 52.1818C148.317 52.4773 148.019 52.7102 147.636 52.8807C147.252 53.0511 146.806 53.1364 146.298 53.1364C145.63 53.1364 145.077 52.9915 144.64 52.7017C144.202 52.4119 143.925 51.9886 143.809 51.4318L144.763 51.1932C144.854 51.5455 145.026 51.8097 145.279 51.9858C145.535 52.1619 145.869 52.25 146.28 52.25C146.749 52.25 147.121 52.1506 147.397 51.9517C147.675 51.75 147.815 51.5085 147.815 51.2273C147.815 51 147.735 50.8097 147.576 50.6562C147.417 50.5 147.173 50.3835 146.843 50.3068L145.752 50.0511C145.153 49.9091 144.712 49.6889 144.431 49.3906C144.153 49.0895 144.013 48.7131 144.013 48.2614C144.013 47.892 144.117 47.5653 144.325 47.2812C144.535 46.9972 144.82 46.7741 145.181 46.6122C145.545 46.4503 145.957 46.3693 146.417 46.3693C147.065 46.3693 147.573 46.5114 147.942 46.7955C148.315 47.0795 148.579 47.4545 148.735 47.9205Z" fill="black"/>
</svg>
