<svg width="152" height="56" viewBox="0 0 152 56" fill="none" xmlns="http://www.w3.org/2000/svg">
<path d="M26.4817 23L12.4138 23C12.1564 23 11.9478 22.7913 11.9478 22.5338L11.9478 8.46623C11.9478 8.20872 12.1564 8 12.4138 8L26.4817 8C26.7391 8 26.9478 8.20872 26.9478 8.46623L26.9478 22.5337C26.9478 22.7913 26.7391 23 26.4817 23ZM12.8799 22.0675L26.0157 22.0675L26.0157 8.93246L12.8799 8.93246L12.8799 22.0675Z" fill="white" stroke="white" stroke-width="2"/>
<path d="M46.4817 45L32.4138 45C32.1564 45 31.9478 44.7913 31.9478 44.5338L31.9478 30.4662C31.9478 30.2087 32.1564 30 32.4138 30L46.4817 30C46.7391 30 46.9478 30.2087 46.9478 30.4662L46.9478 44.5337C46.9478 44.7913 46.7391 45 46.4817 45ZM32.8799 44.0675L46.0157 44.0675L46.0157 30.9325L32.8799 30.9325L32.8799 44.0675Z" fill="white" stroke="white"/>
<path d="M55.1709 26L31.7244 26C31.2955 26 30.9476 25.6521 30.9476 25.2229L30.9476 1.77705C30.9476 1.34787 31.2955 1 31.7244 1L55.1709 1C55.5999 1 55.9476 1.34787 55.9476 1.77705L55.9476 25.2228C55.9476 25.6521 55.5999 26 55.1709 26ZM32.5011 24.4459L54.3942 24.4459L54.3942 2.5541L32.5011 2.5541L32.5011 24.4459Z" fill="white" stroke="white" stroke-width="2"/>
<path d="M26.2233 53.0549L2.77669 53.0549C2.3477 53.0549 2 52.7071 2 52.2779L2 28.832C2 28.4028 2.3477 28.0549 2.77669 28.0549L26.2233 28.0549C26.6523 28.0549 27 28.4028 27 28.832L27 52.2778C27 52.7071 26.6523 53.0549 26.2233 53.0549ZM3.5535 51.5008L25.4466 51.5008L25.4466 29.609L3.5535 29.609L3.5535 51.5008Z" fill="white" stroke="white" stroke-width="4"/>
<path d="M70.5475 34H64.7805L73.5678 8.54545H80.5032L89.278 34H83.511L77.1349 14.3622H76.936L70.5475 34ZM70.1871 23.9947H83.8093V28.1957H70.1871V23.9947ZM109.466 34H100.442V8.54545H109.54C112.101 8.54545 114.305 9.05504 116.153 10.0742C118 11.0851 119.421 12.5393 120.416 14.4368C121.418 16.3343 121.92 18.6046 121.92 21.2479C121.92 23.8994 121.418 26.178 120.416 28.0838C119.421 29.9896 117.992 31.4521 116.128 32.4712C114.272 33.4904 112.051 34 109.466 34ZM105.824 29.3888H109.242C110.833 29.3888 112.171 29.1071 113.257 28.5437C114.35 27.9719 115.171 27.0895 115.718 25.8963C116.273 24.6948 116.55 23.1454 116.55 21.2479C116.55 19.367 116.273 17.8299 115.718 16.6367C115.171 15.4435 114.355 14.5652 113.269 14.0018C112.184 13.4383 110.845 13.1566 109.254 13.1566H105.824V29.3888ZM134.007 34V8.54545H139.389V29.5629H150.301V34H134.007Z" fill="white"/>
<path d="M70.5898 50L68.2034 41.2727H69.2773L71.1012 48.3807H71.1864L73.0443 41.2727H74.2375L76.0955 48.3807H76.1807L78.0046 41.2727H79.0784L76.6921 50H75.6012L73.675 43.0455H73.6068L71.6807 50H70.5898ZM82.3938 50.1364C81.7631 50.1364 81.2191 49.9972 80.7617 49.7188C80.3071 49.4375 79.9563 49.0455 79.7091 48.5426C79.4648 48.0369 79.3426 47.4489 79.3426 46.7784C79.3426 46.108 79.4648 45.517 79.7091 45.0057C79.9563 44.4915 80.3 44.0909 80.7404 43.804C81.1835 43.5142 81.7006 43.3693 82.2915 43.3693C82.6324 43.3693 82.9691 43.4261 83.3014 43.5398C83.6338 43.6534 83.9364 43.8381 84.2091 44.0938C84.4818 44.3466 84.6992 44.6818 84.8611 45.0994C85.023 45.517 85.104 46.0312 85.104 46.642V47.0682H80.0585V46.1989H84.0813C84.0813 45.8295 84.0074 45.5 83.8597 45.2102C83.7148 44.9205 83.5074 44.6918 83.2375 44.5241C82.9705 44.3565 82.6551 44.2727 82.2915 44.2727C81.8909 44.2727 81.5443 44.3722 81.2517 44.571C80.962 44.767 80.7389 45.0227 80.5827 45.3381C80.4264 45.6534 80.3483 45.9915 80.3483 46.3523V46.9318C80.3483 47.4261 80.4335 47.8452 80.604 48.1889C80.7773 48.5298 81.0174 48.7898 81.3242 48.9688C81.631 49.1449 81.9875 49.233 82.3938 49.233C82.658 49.233 82.8966 49.196 83.1097 49.1222C83.3256 49.0455 83.5117 48.9318 83.6679 48.7812C83.8242 48.6278 83.9449 48.4375 84.0301 48.2102L85.0017 48.483C84.8995 48.8125 84.7276 49.1023 84.4861 49.3523C84.2446 49.5994 83.9463 49.7926 83.5912 49.9318C83.2361 50.0682 82.837 50.1364 82.3938 50.1364ZM86.7702 50V41.2727H87.7759V44.4943H87.8611C87.935 44.3807 88.0372 44.2358 88.1679 44.0597C88.3014 43.8807 88.4918 43.7216 88.7389 43.5824C88.9889 43.4403 89.327 43.3693 89.7532 43.3693C90.3043 43.3693 90.7901 43.5071 91.2105 43.7827C91.631 44.0582 91.9591 44.4489 92.1949 44.9545C92.4307 45.4602 92.5486 46.0568 92.5486 46.7443C92.5486 47.4375 92.4307 48.0384 92.1949 48.5469C91.9591 49.0526 91.6324 49.4446 91.2148 49.723C90.7972 49.9986 90.3157 50.1364 89.7702 50.1364C89.3497 50.1364 89.0131 50.0668 88.7603 49.9276C88.5074 49.7855 88.3128 49.625 88.1764 49.446C88.0401 49.2642 87.935 49.1136 87.8611 48.9943H87.7418V50H86.7702ZM87.7588 46.7273C87.7588 47.2216 87.8313 47.6577 87.9762 48.0355C88.121 48.4105 88.3327 48.7045 88.6111 48.9176C88.8895 49.1278 89.2304 49.233 89.6338 49.233C90.0543 49.233 90.4051 49.1222 90.6864 48.9006C90.9705 48.6761 91.1835 48.375 91.3256 47.9972C91.4705 47.6165 91.5429 47.1932 91.5429 46.7273C91.5429 46.267 91.4719 45.8523 91.3299 45.483C91.1907 45.1108 90.979 44.8168 90.6949 44.6009C90.4137 44.3821 90.06 44.2727 89.6338 44.2727C89.2247 44.2727 88.881 44.3764 88.6026 44.5838C88.3242 44.7884 88.1139 45.0753 87.9719 45.4446C87.8299 45.8111 87.7588 46.2386 87.7588 46.7273ZM102.098 44.9205L101.195 45.1761C101.138 45.0256 101.054 44.8793 100.943 44.7372C100.836 44.5923 100.688 44.473 100.5 44.3793C100.313 44.2855 100.073 44.2386 99.7801 44.2386C99.3796 44.2386 99.0458 44.331 98.7787 44.5156C98.5145 44.6974 98.3824 44.929 98.3824 45.2102C98.3824 45.4602 98.4733 45.6577 98.6551 45.8026C98.837 45.9474 99.121 46.0682 99.5074 46.1648L100.479 46.4034C101.064 46.5455 101.5 46.7628 101.787 47.0554C102.074 47.3452 102.218 47.7187 102.218 48.1761C102.218 48.5511 102.11 48.8864 101.894 49.1818C101.681 49.4773 101.382 49.7102 100.999 49.8807C100.615 50.0511 100.169 50.1364 99.6608 50.1364C98.9932 50.1364 98.4407 49.9915 98.0032 49.7017C97.5657 49.4119 97.2887 48.9886 97.1722 48.4318L98.1267 48.1932C98.2176 48.5455 98.3895 48.8097 98.6424 48.9858C98.898 49.1619 99.2318 49.25 99.6438 49.25C100.113 49.25 100.485 49.1506 100.76 48.9517C101.039 48.75 101.178 48.5085 101.178 48.2273C101.178 48 101.098 47.8097 100.939 47.6562C100.78 47.5 100.536 47.3835 100.206 47.3068L99.1154 47.0511C98.5159 46.9091 98.0756 46.6889 97.7943 46.3906C97.5159 46.0895 97.3767 45.7131 97.3767 45.2614C97.3767 44.892 97.4804 44.5653 97.6878 44.2812C97.898 43.9972 98.1835 43.7741 98.5443 43.6122C98.908 43.4503 99.3199 43.3693 99.7801 43.3693C100.428 43.3693 100.936 43.5114 101.306 43.7955C101.678 44.0795 101.942 44.4545 102.098 44.9205ZM106.391 50.1364C105.8 50.1364 105.281 49.9957 104.835 49.7145C104.392 49.4332 104.045 49.0398 103.795 48.5341C103.548 48.0284 103.425 47.4375 103.425 46.7614C103.425 46.0795 103.548 45.4844 103.795 44.9759C104.045 44.4673 104.392 44.0724 104.835 43.7912C105.281 43.5099 105.8 43.3693 106.391 43.3693C106.981 43.3693 107.499 43.5099 107.942 43.7912C108.388 44.0724 108.734 44.4673 108.981 44.9759C109.231 45.4844 109.356 46.0795 109.356 46.7614C109.356 47.4375 109.231 48.0284 108.981 48.5341C108.734 49.0398 108.388 49.4332 107.942 49.7145C107.499 49.9957 106.981 50.1364 106.391 50.1364ZM106.391 49.233C106.839 49.233 107.209 49.1179 107.499 48.8878C107.788 48.6577 108.003 48.3551 108.142 47.9801C108.281 47.6051 108.351 47.1989 108.351 46.7614C108.351 46.3239 108.281 45.9162 108.142 45.5384C108.003 45.1605 107.788 44.8551 107.499 44.6222C107.209 44.3892 106.839 44.2727 106.391 44.2727C105.942 44.2727 105.572 44.3892 105.283 44.6222C104.993 44.8551 104.778 45.1605 104.639 45.5384C104.5 45.9162 104.43 46.3239 104.43 46.7614C104.43 47.1989 104.5 47.6051 104.639 47.9801C104.778 48.3551 104.993 48.6577 105.283 48.8878C105.572 49.1179 105.942 49.233 106.391 49.233ZM111.897 41.2727V50H110.892V41.2727H111.897ZM117.864 47.3239V43.4545H118.87V50H117.864V48.892H117.796C117.643 49.2244 117.404 49.5071 117.08 49.7401C116.756 49.9702 116.347 50.0852 115.853 50.0852C115.444 50.0852 115.08 49.9957 114.762 49.8168C114.444 49.6349 114.194 49.3622 114.012 48.9986C113.83 48.6321 113.739 48.1705 113.739 47.6136V43.4545H114.745V47.5455C114.745 48.0227 114.879 48.4034 115.146 48.6875C115.415 48.9716 115.759 49.1136 116.177 49.1136C116.427 49.1136 116.681 49.0497 116.94 48.9219C117.201 48.794 117.42 48.598 117.596 48.3338C117.775 48.0696 117.864 47.733 117.864 47.3239ZM123.559 43.4545V44.3068H120.167V43.4545H123.559ZM121.155 41.8864H122.161V48.125C122.161 48.4091 122.202 48.6222 122.284 48.7642C122.37 48.9034 122.478 48.9972 122.608 49.0455C122.742 49.0909 122.882 49.1136 123.03 49.1136C123.141 49.1136 123.232 49.108 123.303 49.0966C123.374 49.0824 123.431 49.071 123.473 49.0625L123.678 49.9659C123.61 49.9915 123.515 50.017 123.392 50.0426C123.27 50.071 123.115 50.0852 122.928 50.0852C122.644 50.0852 122.365 50.0241 122.093 49.902C121.823 49.7798 121.598 49.5938 121.419 49.3438C121.243 49.0938 121.155 48.7784 121.155 48.3977V41.8864ZM125.071 50V43.4545H126.077V50H125.071ZM125.583 42.3636C125.387 42.3636 125.218 42.2969 125.076 42.1634C124.936 42.0298 124.867 41.8693 124.867 41.6818C124.867 41.4943 124.936 41.3338 125.076 41.2003C125.218 41.0668 125.387 41 125.583 41C125.779 41 125.946 41.0668 126.086 41.2003C126.228 41.3338 126.299 41.4943 126.299 41.6818C126.299 41.8693 126.228 42.0298 126.086 42.1634C125.946 42.2969 125.779 42.3636 125.583 42.3636ZM130.578 50.1364C129.987 50.1364 129.469 49.9957 129.023 49.7145C128.58 49.4332 128.233 49.0398 127.983 48.5341C127.736 48.0284 127.612 47.4375 127.612 46.7614C127.612 46.0795 127.736 45.4844 127.983 44.9759C128.233 44.4673 128.58 44.0724 129.023 43.7912C129.469 43.5099 129.987 43.3693 130.578 43.3693C131.169 43.3693 131.686 43.5099 132.129 43.7912C132.575 44.0724 132.922 44.4673 133.169 44.9759C133.419 45.4844 133.544 46.0795 133.544 46.7614C133.544 47.4375 133.419 48.0284 133.169 48.5341C132.922 49.0398 132.575 49.4332 132.129 49.7145C131.686 49.9957 131.169 50.1364 130.578 50.1364ZM130.578 49.233C131.027 49.233 131.396 49.1179 131.686 48.8878C131.976 48.6577 132.19 48.3551 132.33 47.9801C132.469 47.6051 132.538 47.1989 132.538 46.7614C132.538 46.3239 132.469 45.9162 132.33 45.5384C132.19 45.1605 131.976 44.8551 131.686 44.6222C131.396 44.3892 131.027 44.2727 130.578 44.2727C130.129 44.2727 129.76 44.3892 129.47 44.6222C129.18 44.8551 128.966 45.1605 128.827 45.5384C128.687 45.9162 128.618 46.3239 128.618 46.7614C128.618 47.1989 128.687 47.6051 128.827 47.9801C128.966 48.3551 129.18 48.6577 129.47 48.8878C129.76 49.1179 130.129 49.233 130.578 49.233ZM136.085 46.0625V50H135.079V43.4545H136.051V44.4773H136.136C136.289 44.1449 136.522 43.8778 136.835 43.6761C137.147 43.4716 137.551 43.3693 138.045 43.3693C138.488 43.3693 138.876 43.4602 139.208 43.642C139.541 43.821 139.799 44.0938 139.984 44.4602C140.169 44.8239 140.261 45.2841 140.261 45.8409V50H139.255V45.9091C139.255 45.3949 139.122 44.9943 138.855 44.7074C138.588 44.4176 138.221 44.2727 137.755 44.2727C137.434 44.2727 137.147 44.3423 136.894 44.4815C136.644 44.6207 136.447 44.8239 136.302 45.0909C136.157 45.358 136.085 45.6818 136.085 46.0625ZM146.735 44.9205L145.832 45.1761C145.775 45.0256 145.691 44.8793 145.58 44.7372C145.472 44.5923 145.325 44.473 145.137 44.3793C144.95 44.2855 144.709 44.2386 144.417 44.2386C144.016 44.2386 143.682 44.331 143.415 44.5156C143.151 44.6974 143.019 44.929 143.019 45.2102C143.019 45.4602 143.11 45.6577 143.292 45.8026C143.474 45.9474 143.758 46.0682 144.144 46.1648L145.116 46.4034C145.701 46.5455 146.137 46.7628 146.424 47.0554C146.711 47.3452 146.854 47.7187 146.854 48.1761C146.854 48.5511 146.746 48.8864 146.53 49.1818C146.317 49.4773 146.019 49.7102 145.636 49.8807C145.252 50.0511 144.806 50.1364 144.298 50.1364C143.63 50.1364 143.077 49.9915 142.64 49.7017C142.202 49.4119 141.925 48.9886 141.809 48.4318L142.763 48.1932C142.854 48.5455 143.026 48.8097 143.279 48.9858C143.535 49.1619 143.869 49.25 144.28 49.25C144.749 49.25 145.121 49.1506 145.397 48.9517C145.675 48.75 145.815 48.5085 145.815 48.2273C145.815 48 145.735 47.8097 145.576 47.6562C145.417 47.5 145.173 47.3835 144.843 47.3068L143.752 47.0511C143.153 46.9091 142.712 46.6889 142.431 46.3906C142.153 46.0895 142.013 45.7131 142.013 45.2614C142.013 44.892 142.117 44.5653 142.325 44.2812C142.535 43.9972 142.82 43.7741 143.181 43.6122C143.545 43.4503 143.957 43.3693 144.417 43.3693C145.065 43.3693 145.573 43.5114 145.942 43.7955C146.315 44.0795 146.579 44.4545 146.735 44.9205Z" fill="white"/>
</svg>
